<?xml version="1.0" encoding="utf-8"?>
<!-- Generator: Adobe Illustrator 26.3.0, SVG Export Plug-In . SVG Version: 6.00 Build 0)  -->
<svg version="1.1" xmlns="http://www.w3.org/2000/svg" xmlns:xlink="http://www.w3.org/1999/xlink" x="0px" y="0px"
	 viewBox="0 0 800 800" style="enable-background:new 0 0 800 800;" xml:space="preserve">
<style type="text/css">
	.st0{display:none;}
	.st1{display:inline;fill:#141016;}
	.st2{fill:#27A485;}
</style>
<g id="Capa_1" class="st0">
	
		<image style="display:inline;overflow:visible;" width="612" height="612" xlink:href="558F48DC.jpg"  transform="matrix(2.7161 0 0 2.601 -429.7826 -385.9565)">
	</image>
</g>
<g id="Capa_4" class="st0">
	<rect class="st1" width="800" height="800"/>
</g>
<g id="Guías">
</g>
<g id="Capa_3">
	<path class="st2" d="M166.1,678.9l104.5-61.5c6.1-3.6,9.9-10.2,9.9-17.2V127.4l-105.9,74.7c-5.3,3.7-8.5,9.8-8.5,16.3V678.9z"/>
	<path class="st2" d="M522.6,678.9l104.5-61.5c6.1-3.6,9.9-10.2,9.9-17.2V127.4l-105.9,74.7c-5.3,3.7-8.5,9.8-8.5,16.3V678.9z"/>
	<path class="st2" d="M344.2,800l104.5-43.5c6.1-2.5,9.9-7.2,9.9-12.2V410l-105.9,52.9c-5.3,2.7-8.5,7-8.5,11.6V800z"/>
	<path class="st2" d="M342.8,390l104.5-43.5c6.1-2.5,9.9-7.2,9.9-12.2V0L351.3,52.9c-5.3,2.7-8.5,7-8.5,11.6V390z"/>
</g>
</svg>
